<svg xmlns="http://www.w3.org/2000/svg" xmlns:xlink="http://www.w3.org/1999/xlink" width="500" zoomAndPan="magnify" viewBox="0 0 375 374.999991" height="500" preserveAspectRatio="xMidYMid meet" version="1.0"><defs><g/></defs><g fill="#8ec0d2" fill-opacity="0.4"><g transform="translate(49.709736, 206.440065)"><g><path d="M 75.933594 -48.894531 C 74.742188 -41.238281 70.910156 -35.644531 64.5 -34.53125 L 64.382812 -34.511719 C 66.175781 -39.386719 66.929688 -45.402344 65.894531 -51.351562 C 64.820312 -57.527344 61.722656 -63.597656 55.914062 -67.992188 C 62.808594 -74.597656 66.386719 -85.789062 64.824219 -94.765625 C 62.753906 -106.660156 52.539062 -112.207031 42.214844 -111.492188 C 41.144531 -111.425781 39.84375 -111.320312 38.210938 -111.035156 C 34.945312 -110.464844 30.710938 -109.25 26.667969 -106.261719 C 26 -110.109375 22.09375 -111.832031 18.132812 -111.144531 C 14.167969 -110.453125 10.164062 -107.234375 9.464844 -101.585938 L -6.042969 -9.878906 C -6.363281 -8.261719 -6.332031 -6.707031 -6.128906 -5.539062 C -5.296875 -0.757812 -1.195312 1.410156 2.769531 0.71875 C 6.847656 0.0078125 10.886719 -3.695312 10.9375 -10.3125 C 16.03125 -5.191406 25.640625 -3.140625 34.847656 -4.746094 C 43.710938 -6.289062 52.625 -10.960938 58.363281 -19.40625 C 60.699219 -19.09375 63.09375 -19.148438 65.890625 -19.636719 C 79.53125 -22.011719 88.847656 -33.363281 90.453125 -48.296875 C 90.464844 -48.898438 90.480469 -49.503906 90.398438 -49.96875 C 89.730469 -53.816406 85.613281 -55.382812 81.882812 -54.734375 C 78.96875 -54.226562 76.296875 -52.320312 75.933594 -48.894531 Z M 28.308594 -75.4375 C 24.84375 -73.273438 22.292969 -67.902344 23.226562 -62.542969 C 23.410156 -61.492188 23.710938 -60.464844 24.125 -59.453125 C 27.183594 -53.621094 32.753906 -52.667969 37.183594 -53.4375 C 38.933594 -53.742188 40.523438 -54.261719 41.609375 -54.929688 C 44.644531 -54.738281 46.722656 -52.457031 47.394531 -48.609375 C 47.738281 -46.628906 47.773438 -44.351562 47.289062 -41.625 C 42.382812 -44.972656 35.558594 -46.910156 27.726562 -45.667969 C 23.996094 -45.015625 19.667969 -43.664062 16.976562 -41.875 L 24.226562 -83.015625 C 26.148438 -89.234375 32.191406 -93.171875 37.203125 -94.042969 C 41.402344 -94.773438 45.226562 -92.796875 45.917969 -88.832031 C 46.507812 -85.453125 45.847656 -79.570312 40.65625 -76.265625 C 39.328125 -76.996094 35.980469 -77.613281 32.597656 -77.023438 C 31.082031 -76.761719 29.609375 -76.265625 28.308594 -75.4375 Z M 31.011719 -19.210938 C 26.695312 -18.460938 23.902344 -20.015625 23.4375 -22.699219 C 23.335938 -23.28125 23.234375 -23.863281 23.363281 -24.488281 C 23.769531 -27.679688 26.4375 -30.308594 30.867188 -31.078125 C 35.644531 -31.910156 39.125 -29.875 42.820312 -27.273438 C 39.894531 -22.679688 35.207031 -19.941406 31.011719 -19.210938 Z M 31.011719 -19.210938 "/></g></g></g><g fill="#8ec0d2" fill-opacity="0.4"><g transform="translate(127.464251, 192.905617)"><g><path d="M 12.664062 -21.785156 L 24.808594 -96.929688 C 25.03125 -98.410156 25.023438 -99.851562 24.820312 -101.015625 C 24.046875 -105.445312 19.34375 -107.628906 15.84375 -107.023438 C 11.414062 -106.25 8.925781 -103.292969 7.972656 -97.722656 L -4.222656 -24.25 C -4.6875 -21.40625 -4.726562 -18.875 -4.300781 -16.429688 C -2.433594 -5.703125 7.460938 -1.296875 17.722656 -3.085938 C 28.796875 -5.011719 41.472656 -14.304688 45.414062 -39.976562 C 45.503906 -40.832031 45.480469 -41.667969 45.355469 -42.371094 C 44.707031 -46.101562 40.976562 -48.214844 37.363281 -47.585938 C 34.449219 -47.078125 31.605469 -44.78125 30.722656 -40.183594 C 27.910156 -25.277344 22.183594 -18.15625 16.707031 -17.203125 C 14.375 -16.796875 12.847656 -17.972656 12.542969 -19.722656 C 12.460938 -20.1875 12.554688 -21.042969 12.664062 -21.785156 Z M 12.664062 -21.785156 "/></g></g></g><g fill="#8ec0d2" fill-opacity="0.4"><g transform="translate(159.988255, 187.244281)"><g><path d="M 45.074219 -32.949219 C 45.09375 -32.835938 44.769531 -34.699219 43.917969 -36.832031 C 44.632812 -37.558594 45.285156 -38.632812 45.804688 -39.804688 C 47.277344 -43.0625 49.011719 -53.816406 48.199219 -58.480469 C 46.128906 -70.371094 34.957031 -76.59375 22.363281 -74.402344 C 11.40625 -72.496094 2.082031 -64.625 0.160156 -53.601562 L -4.171875 -28.101562 C -4.714844 -25.003906 -4.671875 -22.007812 -4.226562 -19.445312 C -2.09375 -7.203125 9.675781 -1.683594 21.570312 -3.753906 C 30.664062 -5.335938 38.433594 -9.691406 41.867188 -18.9375 C 44.066406 -18.722656 46.578125 -18.796875 49.027344 -19.222656 C 62.78125 -21.617188 71.921875 -33.300781 73.753906 -46.230469 C 73.878906 -47.574219 73.910156 -48.78125 73.726562 -49.832031 C 72.976562 -54.144531 69.402344 -56.042969 66.023438 -55.457031 C 62.875 -54.90625 59.933594 -52.472656 59.402344 -47.9375 C 58.097656 -40.261719 53.605469 -34.316406 46.726562 -33.117188 C 46.261719 -33.039062 45.5625 -32.914062 45.074219 -32.949219 Z M 31.105469 -49.019531 C 30.941406 -47.90625 30.753906 -46.914062 30.796875 -45.960938 C 24.265625 -45.542969 19.464844 -39.304688 20.683594 -32.308594 C 21.488281 -28.363281 23.835938 -26.613281 26.375 -25.132812 C 25.570312 -20.789062 22.535156 -18.214844 18.921875 -17.585938 C 14.375 -16.796875 12.71875 -19.390625 12.234375 -22.1875 C 11.847656 -24.40625 12.066406 -26.605469 12.328125 -27.851562 L 16.488281 -52.960938 C 17.214844 -57.050781 20.910156 -59.976562 24.527344 -60.605469 C 28.140625 -61.234375 30.898438 -59.191406 31.363281 -56.511719 C 31.730469 -54.410156 31.496094 -51.609375 31.105469 -49.019531 Z M 31.105469 -49.019531 "/></g></g></g><g fill="#8ec0d2" fill-opacity="0.4"><g transform="translate(220.839619, 176.652104)"><g><path d="M 42.886719 -17.914062 L 51.121094 -65.835938 C 51.511719 -68.425781 51.515625 -70.46875 51.253906 -71.984375 C 50.339844 -77.230469 46.542969 -77.652344 44.925781 -77.96875 C 44.1875 -78.082031 43.351562 -78.054688 42.535156 -77.914062 C 39.035156 -77.304688 35.726562 -74.925781 35.039062 -70.601562 C 30.34375 -74.109375 25.628906 -74.972656 19.449219 -73.894531 C 10.820312 -72.394531 2.582031 -65.914062 0.621094 -54.402344 L -4.378906 -24.464844 C -4.769531 -21.871094 -4.789062 -19.226562 -4.382812 -16.894531 C -2.777344 -7.683594 4.707031 -2.621094 12.941406 -2.253906 C 2.464844 1.734375 -10.679688 8.34375 -12.167969 20.496094 C -12.40625 22.578125 -12.335938 24.367188 -12.03125 26.117188 C -10.0625 37.425781 1.730469 43.0625 13.15625 41.074219 C 24.699219 39.0625 34.464844 30.996094 36.890625 16.640625 L 39.675781 0.902344 C 55.433594 -7.246094 70.988281 -19.324219 74.773438 -45.207031 C 74.960938 -46.199219 74.914062 -47.152344 74.773438 -47.96875 C 74.082031 -51.933594 70.644531 -53.738281 67.148438 -53.128906 C 64 -52.582031 60.964844 -50.011719 60.125 -45.179688 C 57.878906 -32.539062 51.285156 -24.183594 42.886719 -17.914062 Z M 31.601562 -53.066406 L 27.023438 -26.925781 C 25.464844 -22.089844 22.066406 -18.136719 18.105469 -17.445312 C 15.304688 -16.957031 12.964844 -17.992188 12.519531 -20.558594 C 12.417969 -21.140625 12.488281 -22.113281 12.578125 -22.96875 L 17.917969 -54.410156 C 18.515625 -57.875 20.910156 -59.976562 23.476562 -60.421875 C 27.089844 -61.050781 30.703125 -58.917969 31.4375 -54.722656 C 31.515625 -54.253906 31.617188 -53.671875 31.601562 -53.066406 Z M 19.273438 9.976562 L 17.855469 18.394531 C 16.976562 22.992188 13.746094 25.835938 10.25 26.445312 C 7.566406 26.910156 6 25.5 5.636719 23.402344 C 5.511719 22.703125 5.585938 21.730469 5.792969 20.851562 C 6.714844 16.488281 12.042969 13.277344 19.273438 9.976562 Z M 19.273438 9.976562 "/></g></g></g><g fill="#599db7" fill-opacity="1"><g transform="translate(43.660014, 202.184203)"><g><path d="M 75.933594 -48.894531 C 74.742188 -41.238281 70.910156 -35.644531 64.5 -34.53125 L 64.382812 -34.511719 C 66.175781 -39.386719 66.929688 -45.402344 65.894531 -51.351562 C 64.820312 -57.527344 61.722656 -63.597656 55.914062 -67.992188 C 62.808594 -74.597656 66.386719 -85.789062 64.824219 -94.765625 C 62.753906 -106.660156 52.539062 -112.207031 42.214844 -111.492188 C 41.144531 -111.425781 39.84375 -111.320312 38.210938 -111.035156 C 34.945312 -110.464844 30.710938 -109.25 26.667969 -106.261719 C 26 -110.109375 22.09375 -111.832031 18.132812 -111.144531 C 14.167969 -110.453125 10.164062 -107.234375 9.464844 -101.585938 L -6.042969 -9.878906 C -6.363281 -8.261719 -6.332031 -6.707031 -6.128906 -5.539062 C -5.296875 -0.757812 -1.195312 1.410156 2.769531 0.71875 C 6.847656 0.0078125 10.886719 -3.695312 10.9375 -10.3125 C 16.03125 -5.191406 25.640625 -3.140625 34.847656 -4.746094 C 43.710938 -6.289062 52.625 -10.960938 58.363281 -19.40625 C 60.699219 -19.09375 63.09375 -19.148438 65.890625 -19.636719 C 79.53125 -22.011719 88.847656 -33.363281 90.453125 -48.296875 C 90.464844 -48.898438 90.480469 -49.503906 90.398438 -49.96875 C 89.730469 -53.816406 85.613281 -55.382812 81.882812 -54.734375 C 78.96875 -54.226562 76.296875 -52.320312 75.933594 -48.894531 Z M 28.308594 -75.4375 C 24.84375 -73.273438 22.292969 -67.902344 23.226562 -62.542969 C 23.410156 -61.492188 23.710938 -60.464844 24.125 -59.453125 C 27.183594 -53.621094 32.753906 -52.667969 37.183594 -53.4375 C 38.933594 -53.742188 40.523438 -54.261719 41.609375 -54.929688 C 44.644531 -54.738281 46.722656 -52.457031 47.394531 -48.609375 C 47.738281 -46.628906 47.773438 -44.351562 47.289062 -41.625 C 42.382812 -44.972656 35.558594 -46.910156 27.726562 -45.667969 C 23.996094 -45.015625 19.667969 -43.664062 16.976562 -41.875 L 24.226562 -83.015625 C 26.148438 -89.234375 32.191406 -93.171875 37.203125 -94.042969 C 41.402344 -94.773438 45.226562 -92.796875 45.917969 -88.832031 C 46.507812 -85.453125 45.847656 -79.570312 40.65625 -76.265625 C 39.328125 -76.996094 35.980469 -77.613281 32.597656 -77.023438 C 31.082031 -76.761719 29.609375 -76.265625 28.308594 -75.4375 Z M 31.011719 -19.210938 C 26.695312 -18.460938 23.902344 -20.015625 23.4375 -22.699219 C 23.335938 -23.28125 23.234375 -23.863281 23.363281 -24.488281 C 23.769531 -27.679688 26.4375 -30.308594 30.867188 -31.078125 C 35.644531 -31.910156 39.125 -29.875 42.820312 -27.273438 C 39.894531 -22.679688 35.207031 -19.941406 31.011719 -19.210938 Z M 31.011719 -19.210938 "/></g></g></g><g fill="#599db7" fill-opacity="1"><g transform="translate(121.414529, 188.649755)"><g><path d="M 12.664062 -21.785156 L 24.808594 -96.929688 C 25.03125 -98.410156 25.023438 -99.851562 24.820312 -101.015625 C 24.046875 -105.445312 19.34375 -107.628906 15.84375 -107.023438 C 11.414062 -106.25 8.925781 -103.292969 7.972656 -97.722656 L -4.222656 -24.25 C -4.6875 -21.40625 -4.726562 -18.875 -4.300781 -16.429688 C -2.433594 -5.703125 7.460938 -1.296875 17.722656 -3.085938 C 28.796875 -5.011719 41.472656 -14.304688 45.414062 -39.976562 C 45.503906 -40.832031 45.480469 -41.667969 45.355469 -42.371094 C 44.707031 -46.101562 40.976562 -48.214844 37.363281 -47.585938 C 34.449219 -47.078125 31.605469 -44.78125 30.722656 -40.183594 C 27.910156 -25.277344 22.183594 -18.15625 16.707031 -17.203125 C 14.375 -16.796875 12.847656 -17.972656 12.542969 -19.722656 C 12.460938 -20.1875 12.554688 -21.042969 12.664062 -21.785156 Z M 12.664062 -21.785156 "/></g></g></g><g fill="#599db7" fill-opacity="1"><g transform="translate(153.938533, 182.988419)"><g><path d="M 45.074219 -32.949219 C 45.09375 -32.835938 44.769531 -34.699219 43.917969 -36.832031 C 44.632812 -37.558594 45.285156 -38.632812 45.804688 -39.804688 C 47.277344 -43.0625 49.011719 -53.816406 48.199219 -58.480469 C 46.128906 -70.371094 34.957031 -76.59375 22.363281 -74.402344 C 11.40625 -72.496094 2.082031 -64.625 0.160156 -53.601562 L -4.171875 -28.101562 C -4.714844 -25.003906 -4.671875 -22.007812 -4.226562 -19.445312 C -2.09375 -7.203125 9.675781 -1.683594 21.570312 -3.753906 C 30.664062 -5.335938 38.433594 -9.691406 41.867188 -18.9375 C 44.066406 -18.722656 46.578125 -18.796875 49.027344 -19.222656 C 62.78125 -21.617188 71.921875 -33.300781 73.753906 -46.230469 C 73.878906 -47.574219 73.910156 -48.78125 73.726562 -49.832031 C 72.976562 -54.144531 69.402344 -56.042969 66.023438 -55.457031 C 62.875 -54.90625 59.933594 -52.472656 59.402344 -47.9375 C 58.097656 -40.261719 53.605469 -34.316406 46.726562 -33.117188 C 46.261719 -33.039062 45.5625 -32.914062 45.074219 -32.949219 Z M 31.105469 -49.019531 C 30.941406 -47.90625 30.753906 -46.914062 30.796875 -45.960938 C 24.265625 -45.542969 19.464844 -39.304688 20.683594 -32.308594 C 21.488281 -28.363281 23.835938 -26.613281 26.375 -25.132812 C 25.570312 -20.789062 22.535156 -18.214844 18.921875 -17.585938 C 14.375 -16.796875 12.71875 -19.390625 12.234375 -22.1875 C 11.847656 -24.40625 12.066406 -26.605469 12.328125 -27.851562 L 16.488281 -52.960938 C 17.214844 -57.050781 20.910156 -59.976562 24.527344 -60.605469 C 28.140625 -61.234375 30.898438 -59.191406 31.363281 -56.511719 C 31.730469 -54.410156 31.496094 -51.609375 31.105469 -49.019531 Z M 31.105469 -49.019531 "/></g></g></g><g fill="#599db7" fill-opacity="1"><g transform="translate(214.789896, 172.396242)"><g><path d="M 42.886719 -17.914062 L 51.121094 -65.835938 C 51.511719 -68.425781 51.515625 -70.46875 51.253906 -71.984375 C 50.339844 -77.230469 46.542969 -77.652344 44.925781 -77.96875 C 44.1875 -78.082031 43.351562 -78.054688 42.535156 -77.914062 C 39.035156 -77.304688 35.726562 -74.925781 35.039062 -70.601562 C 30.34375 -74.109375 25.628906 -74.972656 19.449219 -73.894531 C 10.820312 -72.394531 2.582031 -65.914062 0.621094 -54.402344 L -4.378906 -24.464844 C -4.769531 -21.871094 -4.789062 -19.226562 -4.382812 -16.894531 C -2.777344 -7.683594 4.707031 -2.621094 12.941406 -2.253906 C 2.464844 1.734375 -10.679688 8.34375 -12.167969 20.496094 C -12.40625 22.578125 -12.335938 24.367188 -12.03125 26.117188 C -10.0625 37.425781 1.730469 43.0625 13.15625 41.074219 C 24.699219 39.0625 34.464844 30.996094 36.890625 16.640625 L 39.675781 0.902344 C 55.433594 -7.246094 70.988281 -19.324219 74.773438 -45.207031 C 74.960938 -46.199219 74.914062 -47.152344 74.773438 -47.96875 C 74.082031 -51.933594 70.644531 -53.738281 67.148438 -53.128906 C 64 -52.582031 60.964844 -50.011719 60.125 -45.179688 C 57.878906 -32.539062 51.285156 -24.183594 42.886719 -17.914062 Z M 31.601562 -53.066406 L 27.023438 -26.925781 C 25.464844 -22.089844 22.066406 -18.136719 18.105469 -17.445312 C 15.304688 -16.957031 12.964844 -17.992188 12.519531 -20.558594 C 12.417969 -21.140625 12.488281 -22.113281 12.578125 -22.96875 L 17.917969 -54.410156 C 18.515625 -57.875 20.910156 -59.976562 23.476562 -60.421875 C 27.089844 -61.050781 30.703125 -58.917969 31.4375 -54.722656 C 31.515625 -54.253906 31.617188 -53.671875 31.601562 -53.066406 Z M 19.273438 9.976562 L 17.855469 18.394531 C 16.976562 22.992188 13.746094 25.835938 10.25 26.445312 C 7.566406 26.910156 6 25.5 5.636719 23.402344 C 5.511719 22.703125 5.585938 21.730469 5.792969 20.851562 C 6.714844 16.488281 12.042969 13.277344 19.273438 9.976562 Z M 19.273438 9.976562 "/></g></g></g><g fill="#8ec0d2" fill-opacity="0.4"><g transform="translate(90.147988, 306.052558)"><g><path d="M 60.546875 -100.492188 L 9.46875 -92.777344 C 3.5 -91.65625 1.480469 -87.90625 1.988281 -84.535156 C 2.464844 -81.375 5.242188 -78.671875 9.035156 -79.246094 L 25.359375 -81.710938 L 12.316406 -11.878906 C 12.054688 -10.761719 12.109375 -9.691406 12.234375 -8.851562 C 12.902344 -4.425781 17.167969 -2.59375 21.167969 -3.199219 C 24.75 -3.738281 28.042969 -6.175781 28.808594 -10.382812 L 42.738281 -84.335938 L 59.902344 -86.929688 C 65.800781 -87.820312 67.789062 -91.78125 67.277344 -95.152344 C 66.800781 -98.3125 64.128906 -101.03125 60.546875 -100.492188 Z M 60.546875 -100.492188 "/></g></g></g><g fill="#8ec0d2" fill-opacity="0.4"><g transform="translate(153.118031, 296.54119)"><g><path d="M 55.417969 -39.609375 C 52.691406 -26.269531 47.5 -19.992188 42.761719 -19.277344 C 40.761719 -18.976562 39.320312 -19.941406 39.082031 -21.523438 C 39.019531 -21.945312 39.042969 -22.484375 39.191406 -22.9375 L 44.121094 -48.78125 C 44.554688 -50.894531 44.480469 -52.820312 44.210938 -54.613281 C 42.9375 -63.039062 35.316406 -68.566406 26.785156 -67.277344 C 24.257812 -66.894531 22.320312 -66.171875 20.253906 -64.890625 L 23.960938 -85.269531 C 24.230469 -87.035156 24.519531 -88.695312 24.3125 -90.0625 C 23.644531 -94.484375 19.789062 -96.488281 16.3125 -95.964844 C 12.207031 -95.34375 10.042969 -92.539062 8.886719 -86.65625 L -5.574219 -11.222656 C -5.875 -9.667969 -5.878906 -8.269531 -5.691406 -7.003906 C -4.972656 -2.265625 -1.054688 0.160156 2.527344 -0.382812 C 5.582031 -0.84375 8.453125 -3.214844 9.367188 -7.878906 L 16.667969 -45.820312 C 18.277344 -50.15625 21.394531 -53.75 24.660156 -54.246094 C 26.765625 -54.5625 28.480469 -53.207031 28.765625 -51.308594 C 28.863281 -50.679688 28.851562 -50.03125 28.632812 -49.351562 L 24.269531 -26.179688 C 23.808594 -23.523438 23.734375 -21.144531 24.054688 -19.035156 C 25.550781 -9.136719 34.753906 -5.25 43.707031 -6.601562 C 53.710938 -8.113281 64.25 -16.058594 68.527344 -39.113281 C 68.625 -39.878906 68.636719 -40.527344 68.539062 -41.160156 C 68.046875 -44.425781 64.570312 -46.054688 61.199219 -45.542969 C 58.566406 -45.148438 55.945312 -43.242188 55.417969 -39.609375 Z M 55.417969 -39.609375 "/></g></g></g><g fill="#8ec0d2" fill-opacity="0.4"><g transform="translate(209.559419, 288.015949)"><g><path d="M 60.65625 -45.570312 C 57.707031 -45.125 54.714844 -42.839844 54.054688 -38.648438 C 51.902344 -25.074219 45.921875 -19.753906 41.179688 -19.039062 C 39.390625 -18.769531 38.195312 -19.558594 37.941406 -21.242188 C 37.8125 -22.085938 37.863281 -23.167969 38.003906 -24.375 L 44.644531 -60.28125 C 44.875 -61.605469 44.914062 -62.796875 44.753906 -63.851562 C 44.054688 -68.484375 39.894531 -70.335938 36 -69.746094 C 33.050781 -69.300781 30.203125 -67.46875 28.917969 -64.582031 C 26.496094 -65.617188 22.152344 -66.578125 16.78125 -65.765625 C 9.828125 -64.714844 2.820312 -59.777344 1.199219 -51.238281 L -4.417969 -21.414062 C -4.765625 -19.421875 -4.898438 -17.464844 -4.613281 -15.570312 C -3.292969 -6.828125 4.84375 -0.730469 14.113281 -2.132812 C 19.0625 -2.878906 23.785156 -5.855469 27.15625 -9.917969 C 31.257812 -5.582031 38.863281 -5.871094 42.019531 -6.347656 C 50.761719 -7.667969 61.785156 -13.855469 65.945312 -31.9375 C 66.800781 -36.265625 67.5625 -39.074219 67.277344 -40.96875 C 66.734375 -44.550781 63.710938 -46.03125 60.65625 -45.570312 Z M 25.742188 -41.375 L 23.058594 -24.917969 C 21.878906 -17.738281 18.117188 -15.554688 15.90625 -15.222656 C 13.589844 -14.871094 12.207031 -16.171875 11.839844 -18.59375 C 11.632812 -19.960938 11.757812 -21.273438 11.933594 -22.269531 L 15.476562 -44.457031 C 16.503906 -51.183594 19.328125 -52.46875 21.011719 -52.722656 C 23.011719 -53.027344 25.527344 -51.359375 26.066406 -47.777344 C 26.308594 -46.199219 26.1875 -44.132812 25.742188 -41.375 Z M 25.742188 -41.375 "/></g></g></g><g fill="#8ec0d2" fill-opacity="0.4"><g transform="translate(264.84249, 279.665667)"><g><path d="M 33.113281 -35.378906 C 30.648438 -23.15625 24.855469 -16.574219 18.75 -15.652344 C 14.957031 -15.078125 12.289062 -17.042969 11.859375 -19.886719 C 11.75 -20.625 11.832031 -21.5 11.933594 -22.269531 L 17.816406 -53.210938 L 24.660156 -54.246094 C 30.03125 -55.054688 32.300781 -59.277344 31.777344 -62.753906 C 31.363281 -65.492188 29.207031 -67.640625 25.207031 -67.039062 L 20.464844 -66.320312 L 24.421875 -87.925781 C 24.519531 -88.695312 24.53125 -89.339844 24.433594 -89.972656 C 23.847656 -93.871094 20.628906 -96.617188 15.996094 -95.914062 C 12.519531 -95.390625 9.9375 -92.523438 9.230469 -88.644531 L 4.351562 -63.886719 L -0.0703125 -63.21875 C -5.757812 -62.359375 -7.636719 -58.414062 -7.128906 -55.042969 C -6.683594 -52.09375 -4.511719 -49.839844 -1.667969 -50.269531 L 1.808594 -50.792969 L -3.207031 -24.074219 L -3.222656 -24.179688 C -3.683594 -21.527344 -3.753906 -19.144531 -3.417969 -16.933594 C -1.796875 -6.191406 8.742188 -1.320312 19.589844 -2.957031 C 33.070312 -4.996094 42.828125 -16.703125 46.222656 -34.878906 C 46.320312 -35.648438 46.417969 -36.417969 46.324219 -37.050781 C 45.847656 -40.210938 42.492188 -41.75 39.226562 -41.257812 C 36.59375 -40.859375 33.867188 -38.9375 33.113281 -35.378906 Z M 33.113281 -35.378906 "/></g></g></g><g fill="#8ec0d2" fill-opacity="0.4"><g transform="translate(299.27594, 274.464635)"><g><path d="M 39.515625 -35.054688 L 53.683594 -96.007812 C 55.296875 -108.855469 39.710938 -108.652344 37.660156 -97.25 L 25.835938 -37.1875 C 23.527344 -28.222656 37.351562 -25.140625 39.515625 -35.054688 Z M 27.300781 -21.789062 C 22.5625 -21.074219 19.238281 -16.695312 19.96875 -11.847656 C 20.683594 -7.109375 25.171875 -3.800781 29.910156 -4.519531 C 34.753906 -5.25 38.0625 -9.734375 37.347656 -14.472656 C 36.613281 -19.320312 32.144531 -22.519531 27.300781 -21.789062 Z M 27.300781 -21.789062 "/></g></g></g><g fill="#599db7" fill-opacity="1"><g transform="translate(84.790468, 302.101112)"><g><path d="M 60.546875 -100.492188 L 9.46875 -92.777344 C 3.5 -91.65625 1.480469 -87.90625 1.988281 -84.535156 C 2.464844 -81.375 5.242188 -78.671875 9.035156 -79.246094 L 25.359375 -81.710938 L 12.316406 -11.878906 C 12.054688 -10.761719 12.109375 -9.691406 12.234375 -8.851562 C 12.902344 -4.425781 17.167969 -2.59375 21.167969 -3.199219 C 24.75 -3.738281 28.042969 -6.175781 28.808594 -10.382812 L 42.738281 -84.335938 L 59.902344 -86.929688 C 65.800781 -87.820312 67.789062 -91.78125 67.277344 -95.152344 C 66.800781 -98.3125 64.128906 -101.03125 60.546875 -100.492188 Z M 60.546875 -100.492188 "/></g></g></g><g fill="#599db7" fill-opacity="1"><g transform="translate(147.760511, 292.589744)"><g><path d="M 55.417969 -39.609375 C 52.691406 -26.269531 47.5 -19.992188 42.761719 -19.277344 C 40.761719 -18.976562 39.320312 -19.941406 39.082031 -21.523438 C 39.019531 -21.945312 39.042969 -22.484375 39.191406 -22.9375 L 44.121094 -48.78125 C 44.554688 -50.894531 44.480469 -52.820312 44.210938 -54.613281 C 42.9375 -63.039062 35.316406 -68.566406 26.785156 -67.277344 C 24.257812 -66.894531 22.320312 -66.171875 20.253906 -64.890625 L 23.960938 -85.269531 C 24.230469 -87.035156 24.519531 -88.695312 24.3125 -90.0625 C 23.644531 -94.484375 19.789062 -96.488281 16.3125 -95.964844 C 12.207031 -95.34375 10.042969 -92.539062 8.886719 -86.65625 L -5.574219 -11.222656 C -5.875 -9.667969 -5.878906 -8.269531 -5.691406 -7.003906 C -4.972656 -2.265625 -1.054688 0.160156 2.527344 -0.382812 C 5.582031 -0.84375 8.453125 -3.214844 9.367188 -7.878906 L 16.667969 -45.820312 C 18.277344 -50.15625 21.394531 -53.75 24.660156 -54.246094 C 26.765625 -54.5625 28.480469 -53.207031 28.765625 -51.308594 C 28.863281 -50.679688 28.851562 -50.03125 28.632812 -49.351562 L 24.269531 -26.179688 C 23.808594 -23.523438 23.734375 -21.144531 24.054688 -19.035156 C 25.550781 -9.136719 34.753906 -5.25 43.707031 -6.601562 C 53.710938 -8.113281 64.25 -16.058594 68.527344 -39.113281 C 68.625 -39.878906 68.636719 -40.527344 68.539062 -41.160156 C 68.046875 -44.425781 64.570312 -46.054688 61.199219 -45.542969 C 58.566406 -45.148438 55.945312 -43.242188 55.417969 -39.609375 Z M 55.417969 -39.609375 "/></g></g></g><g fill="#599db7" fill-opacity="1"><g transform="translate(204.201899, 284.064503)"><g><path d="M 60.65625 -45.570312 C 57.707031 -45.125 54.714844 -42.839844 54.054688 -38.648438 C 51.902344 -25.074219 45.921875 -19.753906 41.179688 -19.039062 C 39.390625 -18.769531 38.195312 -19.558594 37.941406 -21.242188 C 37.8125 -22.085938 37.863281 -23.167969 38.003906 -24.375 L 44.644531 -60.28125 C 44.875 -61.605469 44.914062 -62.796875 44.753906 -63.851562 C 44.054688 -68.484375 39.894531 -70.335938 36 -69.746094 C 33.050781 -69.300781 30.203125 -67.46875 28.917969 -64.582031 C 26.496094 -65.617188 22.152344 -66.578125 16.78125 -65.765625 C 9.828125 -64.714844 2.820312 -59.777344 1.199219 -51.238281 L -4.417969 -21.414062 C -4.765625 -19.421875 -4.898438 -17.464844 -4.613281 -15.570312 C -3.292969 -6.828125 4.84375 -0.730469 14.113281 -2.132812 C 19.0625 -2.878906 23.785156 -5.855469 27.15625 -9.917969 C 31.257812 -5.582031 38.863281 -5.871094 42.019531 -6.347656 C 50.761719 -7.667969 61.785156 -13.855469 65.945312 -31.9375 C 66.800781 -36.265625 67.5625 -39.074219 67.277344 -40.96875 C 66.734375 -44.550781 63.710938 -46.03125 60.65625 -45.570312 Z M 25.742188 -41.375 L 23.058594 -24.917969 C 21.878906 -17.738281 18.117188 -15.554688 15.90625 -15.222656 C 13.589844 -14.871094 12.207031 -16.171875 11.839844 -18.59375 C 11.632812 -19.960938 11.757812 -21.273438 11.933594 -22.269531 L 15.476562 -44.457031 C 16.503906 -51.183594 19.328125 -52.46875 21.011719 -52.722656 C 23.011719 -53.027344 25.527344 -51.359375 26.066406 -47.777344 C 26.308594 -46.199219 26.1875 -44.132812 25.742188 -41.375 Z M 25.742188 -41.375 "/></g></g></g><g fill="#599db7" fill-opacity="1"><g transform="translate(259.48497, 275.714221)"><g><path d="M 33.113281 -35.378906 C 30.648438 -23.15625 24.855469 -16.574219 18.75 -15.652344 C 14.957031 -15.078125 12.289062 -17.042969 11.859375 -19.886719 C 11.75 -20.625 11.832031 -21.5 11.933594 -22.269531 L 17.816406 -53.210938 L 24.660156 -54.246094 C 30.03125 -55.054688 32.300781 -59.277344 31.777344 -62.753906 C 31.363281 -65.492188 29.207031 -67.640625 25.207031 -67.039062 L 20.464844 -66.320312 L 24.421875 -87.925781 C 24.519531 -88.695312 24.53125 -89.339844 24.433594 -89.972656 C 23.847656 -93.871094 20.628906 -96.617188 15.996094 -95.914062 C 12.519531 -95.390625 9.9375 -92.523438 9.230469 -88.644531 L 4.351562 -63.886719 L -0.0703125 -63.21875 C -5.757812 -62.359375 -7.636719 -58.414062 -7.128906 -55.042969 C -6.683594 -52.09375 -4.511719 -49.839844 -1.667969 -50.269531 L 1.808594 -50.792969 L -3.207031 -24.074219 L -3.222656 -24.179688 C -3.683594 -21.527344 -3.753906 -19.144531 -3.417969 -16.933594 C -1.796875 -6.191406 8.742188 -1.320312 19.589844 -2.957031 C 33.070312 -4.996094 42.828125 -16.703125 46.222656 -34.878906 C 46.320312 -35.648438 46.417969 -36.417969 46.324219 -37.050781 C 45.847656 -40.210938 42.492188 -41.75 39.226562 -41.257812 C 36.59375 -40.859375 33.867188 -38.9375 33.113281 -35.378906 Z M 33.113281 -35.378906 "/></g></g></g><g fill="#599db7" fill-opacity="1"><g transform="translate(293.918421, 270.513189)"><g><path d="M 39.515625 -35.054688 L 53.683594 -96.007812 C 55.296875 -108.855469 39.710938 -108.652344 37.660156 -97.25 L 25.835938 -37.1875 C 23.527344 -28.222656 37.351562 -25.140625 39.515625 -35.054688 Z M 27.300781 -21.789062 C 22.5625 -21.074219 19.238281 -16.695312 19.96875 -11.847656 C 20.683594 -7.109375 25.171875 -3.800781 29.910156 -4.519531 C 34.753906 -5.25 38.0625 -9.734375 37.347656 -14.472656 C 36.613281 -19.320312 32.144531 -22.519531 27.300781 -21.789062 Z M 27.300781 -21.789062 "/></g></g></g></svg>