<svg xmlns="http://www.w3.org/2000/svg" xmlns:xlink="http://www.w3.org/1999/xlink" width="500" zoomAndPan="magnify" viewBox="0 0 375 374.999991" height="500" preserveAspectRatio="xMidYMid meet" version="1.0"><defs><g/></defs><g fill="#8ec0d2" fill-opacity="0.4"><g transform="translate(58.913576, 307.509188)"><g><path d="M 147.742188 -95.128906 C 145.425781 -80.234375 137.96875 -69.355469 125.496094 -67.183594 L 125.265625 -67.144531 C 128.757812 -76.632812 130.226562 -88.339844 128.210938 -99.910156 C 126.117188 -111.933594 120.089844 -123.738281 108.785156 -132.285156 C 122.207031 -145.140625 129.167969 -166.917969 126.128906 -184.382812 C 122.101562 -207.523438 102.226562 -218.320312 82.136719 -216.925781 C 80.054688 -216.796875 77.519531 -216.589844 74.34375 -216.035156 C 67.992188 -214.929688 59.757812 -212.5625 51.886719 -206.753906 C 50.585938 -214.238281 42.988281 -217.589844 35.277344 -216.246094 C 27.5625 -214.90625 19.773438 -208.640625 18.414062 -197.652344 L -11.757812 -19.222656 C -12.378906 -16.074219 -12.320312 -13.046875 -11.925781 -10.777344 C -10.308594 -1.476562 -2.328125 2.742188 5.386719 1.398438 C 13.324219 0.0195312 21.183594 -7.191406 21.28125 -20.0625 C 31.195312 -10.105469 49.886719 -6.113281 67.804688 -9.230469 C 85.046875 -12.234375 102.390625 -21.328125 113.554688 -37.761719 C 118.101562 -37.152344 122.757812 -37.261719 128.199219 -38.207031 C 154.742188 -42.828125 172.867188 -64.914062 175.988281 -93.96875 C 176.015625 -95.144531 176.046875 -96.316406 175.890625 -97.222656 C 174.585938 -104.710938 166.578125 -107.757812 159.316406 -106.492188 C 153.648438 -105.503906 148.449219 -101.796875 147.742188 -95.128906 Z M 55.082031 -146.777344 C 48.335938 -142.5625 43.375 -132.117188 45.191406 -121.683594 C 45.546875 -119.644531 46.128906 -117.640625 46.941406 -115.679688 C 52.886719 -104.328125 63.726562 -102.472656 72.347656 -103.976562 C 75.75 -104.566406 78.847656 -105.574219 80.957031 -106.875 C 86.867188 -106.5 90.910156 -102.0625 92.214844 -94.578125 C 92.882812 -90.722656 92.953125 -86.292969 92.007812 -80.988281 C 82.460938 -87.503906 69.183594 -91.269531 53.945312 -88.851562 C 46.6875 -87.589844 38.265625 -84.953125 33.027344 -81.472656 L 47.140625 -161.519531 C 50.875 -173.621094 62.632812 -181.277344 72.386719 -182.976562 C 80.550781 -184.398438 88 -180.550781 89.339844 -172.839844 C 90.484375 -166.261719 89.207031 -154.820312 79.105469 -148.386719 C 76.523438 -149.808594 70.003906 -151.011719 63.425781 -149.863281 C 60.476562 -149.351562 57.605469 -148.382812 55.082031 -146.777344 Z M 60.335938 -37.378906 C 51.941406 -35.917969 46.507812 -38.945312 45.597656 -44.164062 C 45.402344 -45.296875 45.203125 -46.429688 45.460938 -47.644531 C 46.25 -53.859375 51.4375 -58.96875 60.054688 -60.46875 C 69.355469 -62.085938 76.121094 -58.121094 83.3125 -53.066406 C 77.625 -44.128906 68.5 -38.800781 60.335938 -37.378906 Z M 60.335938 -37.378906 "/></g></g></g><g fill="#8ec0d2" fill-opacity="0.4"><g transform="translate(210.197952, 281.175661)"><g><path d="M 125.984375 -220.117188 L 15.96875 -200.96875 C 3.117188 -198.261719 -1.0625 -190.054688 0.199219 -182.796875 C 1.382812 -175.992188 7.519531 -170.28125 15.6875 -171.703125 L 50.847656 -177.824219 L 26.042969 -26.269531 C 25.53125 -23.84375 25.699219 -21.535156 26.015625 -19.71875 C 27.671875 -10.191406 36.976562 -6.4375 45.59375 -7.9375 C 53.308594 -9.277344 60.308594 -14.703125 61.757812 -23.835938 L 88.273438 -184.339844 L 125.25 -190.773438 C 137.953125 -192.988281 142.054688 -201.648438 140.789062 -208.90625 C 139.605469 -215.710938 133.695312 -221.460938 125.984375 -220.117188 Z M 125.984375 -220.117188 "/></g></g></g><g fill="#599db7" fill-opacity="1"><g transform="translate(47.142833, 299.228696)"><g><path d="M 147.742188 -95.128906 C 145.425781 -80.234375 137.96875 -69.355469 125.496094 -67.183594 L 125.265625 -67.144531 C 128.757812 -76.632812 130.226562 -88.339844 128.210938 -99.910156 C 126.117188 -111.933594 120.089844 -123.738281 108.785156 -132.285156 C 122.207031 -145.140625 129.167969 -166.917969 126.128906 -184.382812 C 122.101562 -207.523438 102.226562 -218.320312 82.136719 -216.925781 C 80.054688 -216.796875 77.519531 -216.589844 74.34375 -216.035156 C 67.992188 -214.929688 59.757812 -212.5625 51.886719 -206.753906 C 50.585938 -214.238281 42.988281 -217.589844 35.277344 -216.246094 C 27.5625 -214.90625 19.773438 -208.640625 18.414062 -197.652344 L -11.757812 -19.222656 C -12.378906 -16.074219 -12.320312 -13.046875 -11.925781 -10.777344 C -10.308594 -1.476562 -2.328125 2.742188 5.386719 1.398438 C 13.324219 0.0195312 21.183594 -7.191406 21.28125 -20.0625 C 31.195312 -10.105469 49.886719 -6.113281 67.804688 -9.230469 C 85.046875 -12.234375 102.390625 -21.328125 113.554688 -37.761719 C 118.101562 -37.152344 122.757812 -37.261719 128.199219 -38.207031 C 154.742188 -42.828125 172.867188 -64.914062 175.988281 -93.96875 C 176.015625 -95.144531 176.046875 -96.316406 175.890625 -97.222656 C 174.585938 -104.710938 166.578125 -107.757812 159.316406 -106.492188 C 153.648438 -105.503906 148.449219 -101.796875 147.742188 -95.128906 Z M 55.082031 -146.777344 C 48.335938 -142.5625 43.375 -132.117188 45.191406 -121.683594 C 45.546875 -119.644531 46.128906 -117.640625 46.941406 -115.679688 C 52.886719 -104.328125 63.726562 -102.472656 72.347656 -103.976562 C 75.75 -104.566406 78.847656 -105.574219 80.957031 -106.875 C 86.867188 -106.5 90.910156 -102.0625 92.214844 -94.578125 C 92.882812 -90.722656 92.953125 -86.292969 92.007812 -80.988281 C 82.460938 -87.503906 69.183594 -91.269531 53.945312 -88.851562 C 46.6875 -87.589844 38.265625 -84.953125 33.027344 -81.472656 L 47.140625 -161.519531 C 50.875 -173.621094 62.632812 -181.277344 72.386719 -182.976562 C 80.550781 -184.398438 88 -180.550781 89.339844 -172.839844 C 90.484375 -166.261719 89.207031 -154.820312 79.105469 -148.386719 C 76.523438 -149.808594 70.003906 -151.011719 63.425781 -149.863281 C 60.476562 -149.351562 57.605469 -148.382812 55.082031 -146.777344 Z M 60.335938 -37.378906 C 51.941406 -35.917969 46.507812 -38.945312 45.597656 -44.164062 C 45.402344 -45.296875 45.203125 -46.429688 45.460938 -47.644531 C 46.25 -53.859375 51.4375 -58.96875 60.054688 -60.46875 C 69.355469 -62.085938 76.121094 -58.121094 83.3125 -53.066406 C 77.625 -44.128906 68.5 -38.800781 60.335938 -37.378906 Z M 60.335938 -37.378906 "/></g></g></g><g fill="#599db7" fill-opacity="1"><g transform="translate(198.427208, 272.89517)"><g><path d="M 125.984375 -220.117188 L 15.96875 -200.96875 C 3.117188 -198.261719 -1.0625 -190.054688 0.199219 -182.796875 C 1.382812 -175.992188 7.519531 -170.28125 15.6875 -171.703125 L 50.847656 -177.824219 L 26.042969 -26.269531 C 25.53125 -23.84375 25.699219 -21.535156 26.015625 -19.71875 C 27.671875 -10.191406 36.976562 -6.4375 45.59375 -7.9375 C 53.308594 -9.277344 60.308594 -14.703125 61.757812 -23.835938 L 88.273438 -184.339844 L 125.25 -190.773438 C 137.953125 -192.988281 142.054688 -201.648438 140.789062 -208.90625 C 139.605469 -215.710938 133.695312 -221.460938 125.984375 -220.117188 Z M 125.984375 -220.117188 "/></g></g></g></svg>