<?xml version="1.0" standalone="no"?>
<!DOCTYPE svg PUBLIC "-//W3C//DTD SVG 20010904//EN"
 "http://www.w3.org/TR/2001/REC-SVG-20010904/DTD/svg10.dtd">
<svg version="1.0" xmlns="http://www.w3.org/2000/svg"
 width="289.000000pt" height="238.000000pt" viewBox="0 0 289.000000 238.000000"
 preserveAspectRatio="xMidYMid meet">

<g transform="translate(0.000000,238.000000) scale(0.100000,-0.100000)"
fill="#000000" stroke="none">
<path d="M521 2181 c-29 -10 -65 -27 -80 -38 -45 -34 -89 -100 -100 -153 -14
-66 -15 -1117 -1 -1178 6 -24 21 -60 35 -79 l24 -36 -73 -68 c-40 -37 -100
-91 -134 -120 -68 -57 -88 -97 -79 -161 7 -50 47 -95 98 -108 24 -7 460 -9
1236 -8 1124 3 1200 4 1230 21 43 23 63 64 63 128 0 52 -1 54 -67 113 -36 34
-100 93 -141 132 l-75 70 29 44 29 44 3 603 c2 572 2 606 -16 646 -27 61 -68
104 -126 135 l-51 27 -875 2 c-831 3 -878 2 -929 -16z m1729 -209 c19 -9 40
-28 47 -42 10 -19 13 -146 13 -528 l0 -504 -29 -29 -29 -29 -817 0 c-892 0
-859 -2 -884 58 -9 21 -11 159 -9 524 l3 496 25 27 c14 15 34 31 45 35 11 5
376 9 810 9 733 1 793 0 825 -17z m-1470 -1340 c0 -1 -16 -26 -35 -55 -19 -28
-35 -55 -35 -59 0 -5 47 -8 105 -8 l104 0 28 60 c27 60 27 60 70 60 49 0 50
-3 28 -72 l-14 -48 93 0 94 0 7 46 c10 71 12 74 62 74 l45 0 -7 -60 -7 -60 92
0 92 0 -7 66 -7 65 38 -3 c38 -3 39 -4 59 -65 l20 -63 88 0 c48 0 87 1 87 3 0
1 -7 24 -15 51 -19 63 -19 75 3 71 9 -2 29 -4 43 -4 21 -1 30 -11 54 -61 l29
-60 108 0 c85 0 107 3 102 13 -5 6 -23 33 -41 58 -18 26 -33 49 -33 53 0 3 20
6 45 6 42 0 49 -4 106 -65 l62 -65 92 0 c88 0 92 -1 120 -30 l29 -30 -200 -1
c-109 0 -267 0 -350 1 -194 2 -242 -5 -256 -36 l-11 -24 -246 0 -246 0 -18 31
-17 31 -383 -2 c-210 -1 -388 -2 -396 -1 -10 1 -6 11 14 31 28 29 32 30 116
30 l88 0 53 64 c52 64 53 64 100 63 26 -1 48 -3 48 -5z"/>
<path d="M702 1708 c-14 -14 -17 -295 -4 -316 12 -19 71 -25 148 -17 55 6 73
12 96 35 36 36 37 78 3 118 -19 23 -22 31 -11 35 21 8 30 64 16 98 -7 17 -25
36 -41 44 -35 19 -189 21 -207 3z m163 -98 c0 -22 -5 -25 -42 -28 -42 -3 -43
-2 -43 28 0 30 1 31 43 28 37 -3 42 -6 42 -28z m13 -124 c5 -24 -14 -36 -60
-36 -36 0 -38 2 -38 31 0 30 1 30 47 27 37 -2 49 -7 51 -22z"/>
<path d="M1087 1713 c-4 -3 -7 -77 -7 -164 0 -141 2 -159 18 -167 9 -5 67 -9
129 -10 115 -2 143 7 143 43 0 34 -30 45 -121 45 l-89 0 0 124 c0 104 -3 125
-16 130 -21 8 -49 8 -57 -1z"/>
<path d="M1573 1709 c-18 -5 -48 -25 -68 -44 -123 -124 -6 -331 162 -286 76
21 132 116 117 196 -18 98 -119 162 -211 134z"/>
<path d="M1980 1709 c-32 -13 -78 -56 -96 -91 -22 -43 -18 -129 9 -168 39 -58
71 -75 142 -75 49 0 70 5 92 21 26 19 28 27 31 93 l3 72 -58 -3 c-52 -3 -58
-5 -61 -26 -3 -17 2 -25 17 -29 12 -3 21 -14 21 -23 0 -38 -78 -35 -105 3 -22
31 -19 90 7 122 20 25 25 27 74 21 48 -6 54 -4 73 20 24 31 20 41 -25 60 -38
16 -88 17 -124 3z"/>
<path d="M738 1289 c-21 -12 -24 -49 -6 -67 7 -7 29 -12 50 -12 l38 0 0 -123
c0 -139 8 -161 55 -155 l30 3 3 138 3 137 37 0 c43 0 62 14 62 45 0 39 -18 45
-140 45 -63 0 -123 -5 -132 -11z"/>
<path d="M1112 1292 c-9 -7 -12 -50 -10 -183 l3 -174 35 0 35 0 5 70 5 70 53
3 52 3 0 -63 c0 -68 10 -88 45 -88 41 0 45 16 45 185 0 169 -4 185 -45 185
-35 0 -45 -20 -45 -87 l0 -63 -55 0 -55 0 0 69 c0 54 -4 70 -16 75 -21 8 -36
7 -52 -2z"/>
<path d="M1592 1291 c-7 -4 -28 -48 -46 -97 -19 -49 -46 -118 -60 -154 -34
-82 -31 -104 11 -108 29 -3 35 1 50 32 16 35 18 36 78 36 60 0 62 -1 78 -36
15 -31 21 -35 50 -32 24 2 33 8 35 24 4 30 -115 331 -134 338 -22 8 -47 7 -62
-3z m56 -207 c-4 -3 -17 -4 -30 -2 -24 3 -24 4 -10 38 l14 35 16 -32 c9 -18
13 -35 10 -39z"/>
<path d="M1838 1289 c-21 -12 -24 -49 -6 -67 7 -7 29 -12 50 -12 l38 0 0 -128
c0 -134 5 -152 45 -152 40 0 45 18 45 152 l0 128 38 0 c21 0 43 5 50 12 18 18
14 56 -7 68 -25 13 -230 13 -253 -1z"/>
</g>
</svg>
